# xmcd
#
# Track frame offsets:
#	150
#	12202
#	23205
#	34447
#	45852
#	55375
#	76470
#	90795
#	103760
#	112747
#	124422
#	135760
#	148175
#	163062
#	178972
#	190547
#
# Disc length: 2741 seconds
#
# Revision: 0
# Processed by: cddbd v1.5.2PL0 Copyright (c) Steve Scherf et al.
# Submitted via: audiograbber 1.83.01
#
DISCID=ca0ab310
DTITLE=Marty Robbins - 16 Biggest Hits
DYEAR=1998
DGENRE=Country
TTITLE0=I'll Go On Alone
TTITLE1=Singing The Blues
TTITLE2=A White Sport Coat and A Pink Carnation
TTITLE3=The Story of My Life
TTITLE4=Just Married
TTITLE5=El Paso
TTITLE6=Don't Worry
TTITLE7=Devil Woman
TTITLE8=Ruby Ann
TTITLE9=Begging To You
TTITLE10=Ribbon of Darkness
TTITLE11=Tonight Carmen
TTITLE12=I Walk Alone
TTITLE13=My woman, My woman, My Wife
TTITLE14=Among My Souvenirs
TTITLE15=Some Melodies Just Won't Die
EXTD=
EXTT0=
EXTT1=
EXTT2=
EXTT3=
EXTT4=
EXTT5=
EXTT6=
EXTT7=
EXTT8=
EXTT9=
EXTT10=
EXTT11=
EXTT12=
EXTT13=
EXTT14=
EXTT15=
PLAYORDER=
